<?xml version="1.0" standalone="no"?>
<!DOCTYPE svg PUBLIC "-//W3C//DTD SVG 20010904//EN"
 "http://www.w3.org/TR/2001/REC-SVG-20010904/DTD/svg10.dtd">
<svg version="1.0" xmlns="http://www.w3.org/2000/svg"
 width="281.000000pt" height="94.000000pt" viewBox="0 0 281.000000 94.000000"
 preserveAspectRatio="xMidYMid meet">

<g transform="translate(0.000000,94.000000) scale(0.100000,-0.100000)"
fill="#000000" stroke="none">
<path d="M1534 602 c-60 -28 -84 -64 -84 -124 0 -43 5 -55 33 -83 20 -20 51
-38 78 -44 93 -24 114 -35 114 -61 0 -54 -97 -63 -182 -16 l-43 25 0 -54 c0
-53 0 -54 38 -66 54 -19 180 -17 217 3 48 26 76 63 82 107 11 80 -31 127 -132
151 -89 22 -114 49 -77 83 27 24 91 21 145 -7 l47 -23 0 49 c0 44 -3 50 -27
59 -16 6 -59 13 -98 16 -55 3 -79 0 -111 -15z"/>
<path d="M102 577 c-29 -30 -31 -35 -17 -47 10 -8 15 -25 13 -44 -2 -25 -11
-35 -41 -50 -36 -17 -38 -21 -35 -59 3 -36 7 -42 33 -49 54 -14 71 -62 36 -97
-19 -19 -18 -20 13 -50 l33 -32 32 18 33 18 -7 80 c-9 102 -8 133 0 227 8 77
8 78 -19 88 -14 5 -26 14 -26 20 0 18 -15 11 -48 -23z"/>
<path d="M670 390 l0 -220 50 0 50 0 0 80 c0 76 1 80 23 80 16 0 38 -21 82
-80 l60 -80 63 0 c34 0 62 3 62 8 -1 4 -31 45 -68 90 l-68 84 38 38 c35 34 38
43 38 92 0 103 -42 128 -215 128 l-115 0 0 -220z m201 130 c13 -8 19 -21 19
-45 0 -43 -33 -68 -82 -63 -33 3 -33 3 -36 61 l-3 57 41 0 c23 0 50 -5 61 -10z"/>
<path d="M1100 390 l0 -220 145 0 145 0 0 40 0 40 -90 0 -90 0 0 60 0 60 85 0
85 0 0 40 0 40 -85 0 -85 0 0 40 0 40 90 0 90 0 0 40 0 40 -145 0 -145 0 0
-220z"/>
<path d="M1842 436 c3 -194 8 -209 79 -251 49 -29 161 -28 211 3 61 38 72 74
76 260 l4 162 -56 0 -56 0 0 -137 c0 -76 -5 -155 -10 -175 -17 -61 -72 -77
-115 -33 -24 24 -25 28 -25 185 l0 160 -56 0 -56 0 4 -174z"/>
<path d="M2290 389 l0 -220 48 3 47 3 5 135 c3 94 8 129 14 115 5 -11 22 -49
37 -85 26 -61 29 -65 63 -68 35 -3 36 -2 62 55 14 32 28 72 32 88 4 18 9 -23
12 -105 l5 -135 53 -3 52 -3 0 220 0 221 -58 0 -59 0 -43 -101 c-24 -55 -47
-102 -50 -104 -4 -2 -26 43 -51 100 l-44 105 -62 0 -63 0 0 -221z"/>
</g>
</svg>
